solid OpenSCAD_Model
  facet normal -1 0 0
    outer loop
      vertex -31 -13.5 0
      vertex -31 14.5 5
      vertex -31 14.5 0
    endloop
  endfacet
  facet normal -1 -0 0
    outer loop
      vertex -31 14.5 5
      vertex -31 -13.5 0
      vertex -31 -13.5 5
    endloop
  endfacet
  facet normal 0 0 1
    outer loop
      vertex 30.5 14.5 5
      vertex -30 13.5 5
      vertex 30.5 13.5 5
    endloop
  endfacet
  facet normal 0 0 1
    outer loop
      vertex -31 14.5 5
      vertex -30 7 5
      vertex -30 13.5 5
    endloop
  endfacet
  facet normal 0 0 1
    outer loop
      vertex -30 7 5
      vertex -31 14.5 5
      vertex -30 3 5
    endloop
  endfacet
  facet normal 0 0 1
    outer loop
      vertex -30 3 5
      vertex -31 14.5 5
      vertex -30 -3 5
    endloop
  endfacet
  facet normal 0 0 1
    outer loop
      vertex -31 -13.5 5
      vertex -30 -3 5
      vertex -31 14.5 5
    endloop
  endfacet
  facet normal 0 0 1
    outer loop
      vertex -30 -3 5
      vertex -31 -13.5 5
      vertex -30 -7 5
    endloop
  endfacet
  facet normal -0 0 1
    outer loop
      vertex -31 14.5 5
      vertex -30 13.5 5
      vertex 30.5 14.5 5
    endloop
  endfacet
  facet normal -0 0 1
    outer loop
      vertex -30 7 5
      vertex -28 3 5
      vertex -28 7 5
    endloop
  endfacet
  facet normal 0 0 1
    outer loop
      vertex -28 3 5
      vertex -30 7 5
      vertex -30 3 5
    endloop
  endfacet
  facet normal -0 0 1
    outer loop
      vertex -30 -3 5
      vertex -28 -7 5
      vertex -28 -3 5
    endloop
  endfacet
  facet normal 0 0 1
    outer loop
      vertex -28 -7 5
      vertex -30 -3 5
      vertex -30 -7 5
    endloop
  endfacet
  facet normal -0 0 1
    outer loop
      vertex -30 -12.5 5
      vertex 30.5 -13.5 5
      vertex 30.5 -12.5 5
    endloop
  endfacet
  facet normal 0 0 1
    outer loop
      vertex -30 -12.5 5
      vertex -31 -13.5 5
      vertex 30.5 -13.5 5
    endloop
  endfacet
  facet normal 0 0 1
    outer loop
      vertex -30 -7 5
      vertex -31 -13.5 5
      vertex -30 -12.5 5
    endloop
  endfacet
  facet normal 1 0 0
    outer loop
      vertex -30 -7 5
      vertex -30 -12.5 5
      vertex -30 -7 4.5
    endloop
  endfacet
  facet normal 1 0 0
    outer loop
      vertex -30 3 5
      vertex -30 -3 5
      vertex -30 3 4.5
    endloop
  endfacet
  facet normal 1 0 0
    outer loop
      vertex -30 7 4.5
      vertex -30 13.5 5
      vertex -30 7 5
    endloop
  endfacet
  facet normal 1 0 0
    outer loop
      vertex -30 13.5 5
      vertex -30 7 4.5
      vertex -30 13.5 1
    endloop
  endfacet
  facet normal 1 -0 0
    outer loop
      vertex -30 3 4.5
      vertex -30 13.5 1
      vertex -30 7 4.5
    endloop
  endfacet
  facet normal 1 0 0
    outer loop
      vertex -30 -3 4.5
      vertex -30 3 4.5
      vertex -30 -3 5
    endloop
  endfacet
  facet normal 1 0 0
    outer loop
      vertex -30 -12.5 1
      vertex -30 3 4.5
      vertex -30 -3 4.5
    endloop
  endfacet
  facet normal 1 0 0
    outer loop
      vertex -30 -12.5 1
      vertex -30 -3 4.5
      vertex -30 -7 4.5
    endloop
  endfacet
  facet normal 1 0 0
    outer loop
      vertex -30 -12.5 1
      vertex -30 -7 4.5
      vertex -30 -12.5 5
    endloop
  endfacet
  facet normal 1 0 0
    outer loop
      vertex -30 3 4.5
      vertex -30 -12.5 1
      vertex -30 13.5 1
    endloop
  endfacet
  facet normal 0 0 -1
    outer loop
      vertex -31 -13.5 0
      vertex 31 14.5 0
      vertex 31 -13.5 0
    endloop
  endfacet
  facet normal -0 0 -1
    outer loop
      vertex 31 14.5 0
      vertex -31 -13.5 0
      vertex -31 14.5 0
    endloop
  endfacet
  facet normal 0 -1 0
    outer loop
      vertex -31 -13.5 5
      vertex 30.5 -13.5 4.95517
      vertex 30.5 -13.5 5
    endloop
  endfacet
  facet normal 0 -1 0
    outer loop
      vertex -31 -13.5 0
      vertex 30.5 -13.5 4.95517
      vertex -31 -13.5 5
    endloop
  endfacet
  facet normal 0 -1 0
    outer loop
      vertex 31 -13.5 0
      vertex 30.5 -13.5 4.95517
      vertex -31 -13.5 0
    endloop
  endfacet
  facet normal -0 -1 -0
    outer loop
      vertex 30.953 -13.5 4.5
      vertex 30.5 -13.5 4.95517
      vertex 31 -13.5 0
    endloop
  endfacet
  facet normal 0 -1 0
    outer loop
      vertex 30.5 -13.5 4.95517
      vertex 30.953 -13.5 4.5
      vertex 30.625 -13.5 4.89952
    endloop
  endfacet
  facet normal 0 -1 0
    outer loop
      vertex 30.625 -13.5 4.89952
      vertex 30.953 -13.5 4.5
      vertex 30.7518 -13.5 4.80736
    endloop
  endfacet
  facet normal 0 -1 0
    outer loop
      vertex 30.7518 -13.5 4.80736
      vertex 30.953 -13.5 4.5
      vertex 30.8568 -13.5 4.69084
    endloop
  endfacet
  facet normal 0 -1 0
    outer loop
      vertex 30.8568 -13.5 4.69084
      vertex 30.953 -13.5 4.5
      vertex 30.9352 -13.5 4.55505
    endloop
  endfacet
  facet normal 0 -1 0
    outer loop
      vertex 30.953 -13.5 4.5
      vertex 31 -13.5 0
      vertex 31 -13.5 4.5
    endloop
  endfacet
  facet normal 0 -1 0
    outer loop
      vertex -30 13.5 5
      vertex 30.5 13.5 4.95517
      vertex 30.5 13.5 5
    endloop
  endfacet
  facet normal 0 -1 0
    outer loop
      vertex -30 13.5 1
      vertex 30.5 13.5 4.95517
      vertex -30 13.5 5
    endloop
  endfacet
  facet normal 0 -1 0
    outer loop
      vertex 31 13.5 1
      vertex 30.5 13.5 4.95517
      vertex -30 13.5 1
    endloop
  endfacet
  facet normal -0 -1 -0
    outer loop
      vertex 30.953 13.5 4.5
      vertex 30.5 13.5 4.95517
      vertex 31 13.5 1
    endloop
  endfacet
  facet normal 0 -1 0
    outer loop
      vertex 30.5 13.5 4.95517
      vertex 30.953 13.5 4.5
      vertex 30.625 13.5 4.89952
    endloop
  endfacet
  facet normal 0 -1 0
    outer loop
      vertex 30.625 13.5 4.89952
      vertex 30.953 13.5 4.5
      vertex 30.7518 13.5 4.80736
    endloop
  endfacet
  facet normal 0 -1 0
    outer loop
      vertex 30.7518 13.5 4.80736
      vertex 30.953 13.5 4.5
      vertex 30.8568 13.5 4.69084
    endloop
  endfacet
  facet normal 0 -1 0
    outer loop
      vertex 30.8568 13.5 4.69084
      vertex 30.953 13.5 4.5
      vertex 30.9352 13.5 4.55505
    endloop
  endfacet
  facet normal 0 -1 0
    outer loop
      vertex 30.953 13.5 4.5
      vertex 31 13.5 1
      vertex 31 13.5 4.5
    endloop
  endfacet
  facet normal 1 -0 0
    outer loop
      vertex -28 -7 5
      vertex -28 -3 4.5
      vertex -28 -3 5
    endloop
  endfacet
  facet normal 1 0 0
    outer loop
      vertex -28 -3 4.5
      vertex -28 -7 5
      vertex -28 -7 4.5
    endloop
  endfacet
  facet normal 0 0 -1
    outer loop
      vertex -30 -7 4.5
      vertex -28 -3 4.5
      vertex -28 -7 4.5
    endloop
  endfacet
  facet normal -0 0 -1
    outer loop
      vertex -28 -3 4.5
      vertex -30 -7 4.5
      vertex -30 -3 4.5
    endloop
  endfacet
  facet normal 0 -1 0
    outer loop
      vertex -30 -7 4.5
      vertex -28 -7 5
      vertex -30 -7 5
    endloop
  endfacet
  facet normal 0 -1 -0
    outer loop
      vertex -28 -7 5
      vertex -30 -7 4.5
      vertex -28 -7 4.5
    endloop
  endfacet
  facet normal 0 1 -0
    outer loop
      vertex -28 -3 4.5
      vertex -30 -3 5
      vertex -28 -3 5
    endloop
  endfacet
  facet normal 0 1 0
    outer loop
      vertex -30 -3 5
      vertex -28 -3 4.5
      vertex -30 -3 4.5
    endloop
  endfacet
  facet normal 1 -0 0
    outer loop
      vertex -28 3 5
      vertex -28 7 4.5
      vertex -28 7 5
    endloop
  endfacet
  facet normal 1 0 0
    outer loop
      vertex -28 7 4.5
      vertex -28 3 5
      vertex -28 3 4.5
    endloop
  endfacet
  facet normal 0 0 -1
    outer loop
      vertex -30 3 4.5
      vertex -28 7 4.5
      vertex -28 3 4.5
    endloop
  endfacet
  facet normal -0 0 -1
    outer loop
      vertex -28 7 4.5
      vertex -30 3 4.5
      vertex -30 7 4.5
    endloop
  endfacet
  facet normal 0 -1 0
    outer loop
      vertex -30 3 4.5
      vertex -28 3 5
      vertex -30 3 5
    endloop
  endfacet
  facet normal 0 -1 -0
    outer loop
      vertex -28 3 5
      vertex -30 3 4.5
      vertex -28 3 4.5
    endloop
  endfacet
  facet normal 0 1 -0
    outer loop
      vertex -28 7 4.5
      vertex -30 7 5
      vertex -28 7 5
    endloop
  endfacet
  facet normal 0 1 0
    outer loop
      vertex -30 7 5
      vertex -28 7 4.5
      vertex -30 7 4.5
    endloop
  endfacet
  facet normal 0 1 3.17891e-07
    outer loop
      vertex 25 4 1
      vertex 19 4 1
      vertex 25 4 2.5
    endloop
  endfacet
  facet normal -0.242536 0 0.970143
    outer loop
      vertex 19 4 1
      vertex 25 -4 2.5
      vertex 25 4 2.5
    endloop
  endfacet
  facet normal -0.242536 0 0.970143
    outer loop
      vertex 25 -4 2.5
      vertex 19 4 1
      vertex 19 -4 1
    endloop
  endfacet
  facet normal 0 -1 0
    outer loop
      vertex 31 -4 1.5
      vertex 33 -4 2.5
      vertex 25 -4 2.5
    endloop
  endfacet
  facet normal 0 -1 0
    outer loop
      vertex 33 -4 1.5
      vertex 33 -4 2.5
      vertex 31 -4 1.5
    endloop
  endfacet
  facet normal 0 -1 0
    outer loop
      vertex 31 -4 1
      vertex 25 -4 2.5
      vertex 19 -4 1
    endloop
  endfacet
  facet normal 0 -1 0
    outer loop
      vertex 25 -4 2.5
      vertex 31 -4 1
      vertex 31 -4 1.5
    endloop
  endfacet
  facet normal 0 -1 0
    outer loop
      vertex 33 -4 2.5
      vertex 33 -4 1.5
      vertex 38 -4 2.5
    endloop
  endfacet
  facet normal 0 -1 0
    outer loop
      vertex 38 -4 2.5
      vertex 33 -4 1.5
      vertex 33 -4 1
    endloop
  endfacet
  facet normal 0 0 1
    outer loop
      vertex 33 4 2.5
      vertex 25 4 2.5
      vertex 33 -4 2.5
    endloop
  endfacet
  facet normal 0 0 1
    outer loop
      vertex 33 -4 2.5
      vertex 25 4 2.5
      vertex 25 -4 2.5
    endloop
  endfacet
  facet normal 1 0 0
    outer loop
      vertex 31 -12.5 4.5
      vertex 31 -13.5 4.5
      vertex 31 -12.5 1
    endloop
  endfacet
  facet normal 1 0 0
    outer loop
      vertex 31 4 1.5
      vertex 31 -4 1.5
      vertex 31 4 1
    endloop
  endfacet
  facet normal 1 0 0
    outer loop
      vertex 31 13.5 1
      vertex 31 14.5 4.5
      vertex 31 13.5 4.5
    endloop
  endfacet
  facet normal 1 0 0
    outer loop
      vertex 31 14.5 4.5
      vertex 31 13.5 1
      vertex 31 14.5 0
    endloop
  endfacet
  facet normal 1 -0 0
    outer loop
      vertex 31 4 1
      vertex 31 14.5 0
      vertex 31 13.5 1
    endloop
  endfacet
  facet normal 1 0 0
    outer loop
      vertex 31 -4 1
      vertex 31 4 1
      vertex 31 -4 1.5
    endloop
  endfacet
  facet normal 1 0 0
    outer loop
      vertex 31 4 1
      vertex 31 -4 1
      vertex 31 14.5 0
    endloop
  endfacet
  facet normal 1 0 0
    outer loop
      vertex 31 -13.5 0
      vertex 31 -4 1
      vertex 31 -12.5 1
    endloop
  endfacet
  facet normal 1 0 0
    outer loop
      vertex 31 -4 1
      vertex 31 -13.5 0
      vertex 31 14.5 0
    endloop
  endfacet
  facet normal 1 0 0
    outer loop
      vertex 31 -13.5 0
      vertex 31 -12.5 1
      vertex 31 -13.5 4.5
    endloop
  endfacet
  facet normal 0 1 0
    outer loop
      vertex 38 4 2.5
      vertex 33 4 1.5
      vertex 33 4 2.5
    endloop
  endfacet
  facet normal -0 1 0
    outer loop
      vertex 33 4 1.5
      vertex 38 4 2.5
      vertex 33 4 0.999999
    endloop
  endfacet
  facet normal 0 1 0
    outer loop
      vertex 31 4 1.5
      vertex 33 4 2.5
      vertex 33 4 1.5
    endloop
  endfacet
  facet normal 0 1 0
    outer loop
      vertex 33 4 2.5
      vertex 31 4 1.5
      vertex 25 4 2.5
    endloop
  endfacet
  facet normal 0 1 0
    outer loop
      vertex 25 4 1
      vertex 31 4 1.5
      vertex 31 4 1
    endloop
  endfacet
  facet normal 0 1 0
    outer loop
      vertex 31 4 1.5
      vertex 25 4 1
      vertex 25 4 2.5
    endloop
  endfacet
  facet normal -1 0 0
    outer loop
      vertex 33 -4 1
      vertex 33 4 1.5
      vertex 33 4 0.999999
    endloop
  endfacet
  facet normal -1 -0 0
    outer loop
      vertex 33 4 1.5
      vertex 33 -4 1
      vertex 33 -4 1.5
    endloop
  endfacet
  facet normal 0 0 -1
    outer loop
      vertex 31 -4 1.5
      vertex 33 4 1.5
      vertex 33 -4 1.5
    endloop
  endfacet
  facet normal -0 0 -1
    outer loop
      vertex 33 4 1.5
      vertex 31 -4 1.5
      vertex 31 4 1.5
    endloop
  endfacet
  facet normal 0.287348 -1.14182e-07 -0.957826
    outer loop
      vertex 33 -4 1
      vertex 38 4 2.5
      vertex 38 -4 2.5
    endloop
  endfacet
  facet normal 0.287348 -1.14182e-07 -0.957826
    outer loop
      vertex 38 4 2.5
      vertex 33 -4 1
      vertex 33 4 0.999999
    endloop
  endfacet
  facet normal -0 1.19209e-07 1
    outer loop
      vertex 33 4 2.5
      vertex 38 -4 2.5
      vertex 38 4 2.5
    endloop
  endfacet
  facet normal 0 1.19209e-07 1
    outer loop
      vertex 38 -4 2.5
      vertex 33 4 2.5
      vertex 33 -4 2.5
    endloop
  endfacet
  facet normal 0 0 1
    outer loop
      vertex 31 13.5 1
      vertex 25 4 1
      vertex 31 4 1
    endloop
  endfacet
  facet normal 0 0 1
    outer loop
      vertex 31 13.5 1
      vertex 19 4 1
      vertex 25 4 1
    endloop
  endfacet
  facet normal 0 0 1
    outer loop
      vertex -30 -12.5 1
      vertex 19 4 1
      vertex -30 13.5 1
    endloop
  endfacet
  facet normal -0 0 1
    outer loop
      vertex -30 13.5 1
      vertex 19 4 1
      vertex 31 13.5 1
    endloop
  endfacet
  facet normal -0 0 1
    outer loop
      vertex 19 -4 1
      vertex 31 -12.5 1
      vertex 31 -4 1
    endloop
  endfacet
  facet normal 0 0 1
    outer loop
      vertex 19 4 1
      vertex -30 -12.5 1
      vertex 19 -4 1
    endloop
  endfacet
  facet normal 0 0 1
    outer loop
      vertex 19 -4 1
      vertex -30 -12.5 1
      vertex 31 -12.5 1
    endloop
  endfacet
  facet normal 1 -0 0
    outer loop
      vertex 30.5 -13.5 5
      vertex 30.5 -12.5 4.95517
      vertex 30.5 -12.5 5
    endloop
  endfacet
  facet normal 1 0 0
    outer loop
      vertex 30.5 -12.5 4.95517
      vertex 30.5 -13.5 5
      vertex 30.5 -13.5 4.95517
    endloop
  endfacet
  facet normal 0 1 0
    outer loop
      vertex 31 -12.5 4.5
      vertex 31 -12.5 1
      vertex 30.953 -12.5 4.5
    endloop
  endfacet
  facet normal 0 1 -0
    outer loop
      vertex 30.5 -12.5 4.95517
      vertex -30 -12.5 5
      vertex 30.5 -12.5 5
    endloop
  endfacet
  facet normal 0 1 0
    outer loop
      vertex 30.953 -12.5 4.5
      vertex 30.5 -12.5 4.95517
      vertex 30.625 -12.5 4.89952
    endloop
  endfacet
  facet normal 0 1 0
    outer loop
      vertex 30.953 -12.5 4.5
      vertex 30.625 -12.5 4.89952
      vertex 30.7518 -12.5 4.80736
    endloop
  endfacet
  facet normal 0 1 0
    outer loop
      vertex 30.953 -12.5 4.5
      vertex 30.7518 -12.5 4.80736
      vertex 30.8568 -12.5 4.69084
    endloop
  endfacet
  facet normal 0 1 0
    outer loop
      vertex 30.953 -12.5 4.5
      vertex 30.8568 -12.5 4.69084
      vertex 30.9352 -12.5 4.55505
    endloop
  endfacet
  facet normal 0 1 0
    outer loop
      vertex 30.5 -12.5 4.95517
      vertex 30.953 -12.5 4.5
      vertex 31 -12.5 1
    endloop
  endfacet
  facet normal 0 1 0
    outer loop
      vertex 30.5 -12.5 4.95517
      vertex 31 -12.5 1
      vertex -30 -12.5 1
    endloop
  endfacet
  facet normal 0 1 0
    outer loop
      vertex 30.5 -12.5 4.95517
      vertex -30 -12.5 1
      vertex -30 -12.5 5
    endloop
  endfacet
  facet normal -0 0 1
    outer loop
      vertex 30.953 -12.5 4.5
      vertex 31 -13.5 4.5
      vertex 31 -12.5 4.5
    endloop
  endfacet
  facet normal 0 0 1
    outer loop
      vertex 31 -13.5 4.5
      vertex 30.953 -12.5 4.5
      vertex 30.953 -13.5 4.5
    endloop
  endfacet
  facet normal 0.866028 -0 0.499996
    outer loop
      vertex 30.8568 -13.5 4.69084
      vertex 30.9352 -12.5 4.55505
      vertex 30.8568 -12.5 4.69084
    endloop
  endfacet
  facet normal 0.866028 0 0.499996
    outer loop
      vertex 30.9352 -12.5 4.55505
      vertex 30.8568 -13.5 4.69084
      vertex 30.9352 -13.5 4.55505
    endloop
  endfacet
  facet normal 0.587793 0 0.809011
    outer loop
      vertex 30.625 -12.5 4.89952
      vertex 30.7518 -13.5 4.80736
      vertex 30.7518 -12.5 4.80736
    endloop
  endfacet
  facet normal 0.587793 0 0.809011
    outer loop
      vertex 30.7518 -13.5 4.80736
      vertex 30.625 -12.5 4.89952
      vertex 30.625 -13.5 4.89952
    endloop
  endfacet
  facet normal 0.74314 -0 0.669136
    outer loop
      vertex 30.7518 -13.5 4.80736
      vertex 30.8568 -12.5 4.69084
      vertex 30.7518 -12.5 4.80736
    endloop
  endfacet
  facet normal 0.74314 0 0.669136
    outer loop
      vertex 30.8568 -12.5 4.69084
      vertex 30.7518 -13.5 4.80736
      vertex 30.8568 -13.5 4.69084
    endloop
  endfacet
  facet normal 0.951048 -0 0.309042
    outer loop
      vertex 30.9352 -13.5 4.55505
      vertex 30.953 -12.5 4.5
      vertex 30.9352 -12.5 4.55505
    endloop
  endfacet
  facet normal 0.951048 0 0.309042
    outer loop
      vertex 30.953 -12.5 4.5
      vertex 30.9352 -13.5 4.55505
      vertex 30.953 -13.5 4.5
    endloop
  endfacet
  facet normal 0.406734 0 0.913547
    outer loop
      vertex 30.5 -12.5 4.95517
      vertex 30.625 -13.5 4.89952
      vertex 30.625 -12.5 4.89952
    endloop
  endfacet
  facet normal 0.406734 0 0.913547
    outer loop
      vertex 30.625 -13.5 4.89952
      vertex 30.5 -12.5 4.95517
      vertex 30.5 -13.5 4.95517
    endloop
  endfacet
  facet normal 1 -0 0
    outer loop
      vertex 30.5 13.5 5
      vertex 30.5 14.5 4.95517
      vertex 30.5 14.5 5
    endloop
  endfacet
  facet normal 1 0 0
    outer loop
      vertex 30.5 14.5 4.95517
      vertex 30.5 13.5 5
      vertex 30.5 13.5 4.95517
    endloop
  endfacet
  facet normal 0 1 0
    outer loop
      vertex 31 14.5 4.5
      vertex 31 14.5 0
      vertex 30.953 14.5 4.5
    endloop
  endfacet
  facet normal 0 1 -0
    outer loop
      vertex 30.5 14.5 4.95517
      vertex -31 14.5 5
      vertex 30.5 14.5 5
    endloop
  endfacet
  facet normal 0 1 0
    outer loop
      vertex 30.953 14.5 4.5
      vertex 30.5 14.5 4.95517
      vertex 30.625 14.5 4.89952
    endloop
  endfacet
  facet normal 0 1 0
    outer loop
      vertex 30.953 14.5 4.5
      vertex 30.625 14.5 4.89952
      vertex 30.7518 14.5 4.80736
    endloop
  endfacet
  facet normal 0 1 0
    outer loop
      vertex 30.953 14.5 4.5
      vertex 30.7518 14.5 4.80736
      vertex 30.8568 14.5 4.69084
    endloop
  endfacet
  facet normal 0 1 0
    outer loop
      vertex 30.953 14.5 4.5
      vertex 30.8568 14.5 4.69084
      vertex 30.9352 14.5 4.55505
    endloop
  endfacet
  facet normal 0 1 0
    outer loop
      vertex 30.5 14.5 4.95517
      vertex 30.953 14.5 4.5
      vertex 31 14.5 0
    endloop
  endfacet
  facet normal 0 1 0
    outer loop
      vertex 30.5 14.5 4.95517
      vertex 31 14.5 0
      vertex -31 14.5 0
    endloop
  endfacet
  facet normal 0 1 0
    outer loop
      vertex 30.5 14.5 4.95517
      vertex -31 14.5 0
      vertex -31 14.5 5
    endloop
  endfacet
  facet normal -0 0 1
    outer loop
      vertex 30.953 14.5 4.5
      vertex 31 13.5 4.5
      vertex 31 14.5 4.5
    endloop
  endfacet
  facet normal 0 0 1
    outer loop
      vertex 31 13.5 4.5
      vertex 30.953 14.5 4.5
      vertex 30.953 13.5 4.5
    endloop
  endfacet
  facet normal 0.866028 -0 0.499996
    outer loop
      vertex 30.8568 13.5 4.69084
      vertex 30.9352 14.5 4.55505
      vertex 30.8568 14.5 4.69084
    endloop
  endfacet
  facet normal 0.866028 0 0.499996
    outer loop
      vertex 30.9352 14.5 4.55505
      vertex 30.8568 13.5 4.69084
      vertex 30.9352 13.5 4.55505
    endloop
  endfacet
  facet normal 0.587793 0 0.809011
    outer loop
      vertex 30.625 14.5 4.89952
      vertex 30.7518 13.5 4.80736
      vertex 30.7518 14.5 4.80736
    endloop
  endfacet
  facet normal 0.587793 0 0.809011
    outer loop
      vertex 30.7518 13.5 4.80736
      vertex 30.625 14.5 4.89952
      vertex 30.625 13.5 4.89952
    endloop
  endfacet
  facet normal 0.74314 -0 0.669136
    outer loop
      vertex 30.7518 13.5 4.80736
      vertex 30.8568 14.5 4.69084
      vertex 30.7518 14.5 4.80736
    endloop
  endfacet
  facet normal 0.74314 0 0.669136
    outer loop
      vertex 30.8568 14.5 4.69084
      vertex 30.7518 13.5 4.80736
      vertex 30.8568 13.5 4.69084
    endloop
  endfacet
  facet normal 0.951048 -0 0.309042
    outer loop
      vertex 30.9352 13.5 4.55505
      vertex 30.953 14.5 4.5
      vertex 30.9352 14.5 4.55505
    endloop
  endfacet
  facet normal 0.951048 0 0.309042
    outer loop
      vertex 30.953 14.5 4.5
      vertex 30.9352 13.5 4.55505
      vertex 30.953 13.5 4.5
    endloop
  endfacet
  facet normal 0.406734 0 0.913547
    outer loop
      vertex 30.5 14.5 4.95517
      vertex 30.625 13.5 4.89952
      vertex 30.625 14.5 4.89952
    endloop
  endfacet
  facet normal 0.406734 0 0.913547
    outer loop
      vertex 30.625 13.5 4.89952
      vertex 30.5 14.5 4.95517
      vertex 30.5 13.5 4.95517
    endloop
  endfacet
endsolid OpenSCAD_Model
